# xmcd
#
# Track frame offsets:
#	150
#	14302
#	27905
#	45525
#	63302
#	78102
#	93920
#	112970
#	129457
#	146755
#	160502
#	171300
#
# Disc length: 2437 seconds
#
# Revision: 2
# Processed by: cddbd v1.5PL3 Copyright (c) Steve Scherf et al.
# Submitted via: dBpowerAMP V4.0
#
DISCID=8d09830c
DTITLE=Various Artist - Classic Country Duets
DYEAR=1991
DGENRE=Country
TTITLE0=All Night Long - Randy Travis and Merle Haggard
TTITLE1=Price I Pay - Emmylou Harris and Desert Rose Band
TTITLE2=Too Much Is Enough - Bellamy Brothers and Foester Sisters
TTITLE3=Meet Me In Montana - Dan Seals And Marie Osmond
TTITLE4=I Forgot More Than You'll Ever Know - Jann Browne and Wanda Jackson
TTITLE5=Tie A Yellow Ribbon Round The Old Oak Tree - Sonny James and Karla Taylor
TTITLE6=While The Feeling's Good - Wayne Newton and Tammy Wynette
TTITLE7=Pardon Me (Haven't We Loved Somewhere Before) - Moe Bandy and Becky Hobbs
TTITLE8=All For The Love Of Sunshine - Hank Williams Jr and Mike Curb Congregation
TTITLE9=Since You'Ve Gone - Bill Medley and Bob Gulley
TTITLE10=It's Only Make Believe - Ronnie Mcdowell and Conway Twitty
TTITLE11=Oklahoma Hills - Hank Thompson and Oak Ridge Boys
EXTD=
EXTT0=
EXTT1=
EXTT2=
EXTT3=
EXTT4=
EXTT5=
EXTT6=
EXTT7=
EXTT8=
EXTT9=
EXTT10=
EXTT11=
PLAYORDER=
